<?xml version="1.0" encoding="UTF-8"?>
<svg id="Mode_Isolation" data-name="Mode Isolation" xmlns="http://www.w3.org/2000/svg" width="273.68mm" height="92.93mm" viewBox="0 0 775.78 263.43">
  <defs>
    <style>
      .cls-1 {
        fill: #fff;
      }

      .cls-2 {
        fill: #5c5c5c;
      }

      .cls-3 {
        fill: #e95b0c;
      }

      .cls-4 {
        fill: none;
      }

      .cls-5 {
        fill: #e85c0d;
      }

      .cls-6 {
        fill: #9c9b9b;
      }

      .cls-7 {
        fill: #eb5d26;
      }
    </style>
  </defs>
  <g id="i1">
    <path class="cls-1" d="m109.64,152.65c-5.01,8.45-14.37,12.17-20.9,8.3-6.53-3.87-7.76-13.87-2.75-22.32,5.01-8.45,14.37-12.17,20.9-8.3,6.53,3.87,7.76,13.86,2.75,22.32Z"/>
    <g id="Mode_Isolation-2" data-name="Mode Isolation">
      <g id="i2">
        <path class="cls-7" d="m186.8,46.29C145.18,63.91,108.2,55,107.86,0c-6.76,56.96-38.95,87.18-81.83,96.34,68.55,38.18,8.89,109.67-26.02,167.09,38.21-34.96,98.74-115.09,155.48-107.44-39.35-62,31.32-109.7,31.32-109.7Z"/>
        <path class="cls-1" d="m125.59,133.61c-4.17,7.04-10.52,10.99-14.18,8.81-3.66-2.17-3.25-9.64.92-16.67,4.17-7.04,10.52-10.98,14.18-8.81,3.66,2.17,3.25,9.64-.92,16.67Z"/>
      </g>
    </g>
  </g>
  <g>
    <path class="cls-4" d="m554.84,91.02c-.58-1.06-1.46-1.59-2.63-1.59-1.11,0-1.98.47-2.61,1.41-.63.94-.95,2.36-.95,4.27h7.01c.03-1.66-.25-3.02-.83-4.08Z"/>
    <path class="cls-4" d="m575.51,139.27c-1.11,0-1.98.47-2.61,1.41-.63.94-.95,2.36-.95,4.27h7.01c.03-1.66-.25-3.02-.83-4.08s-1.46-1.59-2.63-1.59Z"/>
    <path class="cls-4" d="m629.31,139.4c-1.11,0-1.98.58-2.61,1.73-.63,1.15-.95,3.13-.95,5.93.03,2.74.35,4.72.95,5.95.6,1.23,1.47,1.82,2.61,1.75,1.23,0,2.13-.64,2.7-1.92.57-1.28.88-3.27.95-5.98-.06-2.71-.41-4.64-1.06-5.79-.65-1.15-1.51-1.71-2.58-1.68Z"/>
    <path class="cls-4" d="m525.86,97.13c0-5.04-1.15-7.57-3.46-7.57-1.57-.03-2.72.72-3.46,2.26v10.66c.62,1.63,1.72,2.45,3.32,2.45,2.34.03,3.54-2.57,3.6-7.8Z"/>
    <path class="cls-4" d="m464.62,91.02c-.58-1.06-1.46-1.59-2.63-1.59-1.11,0-1.98.47-2.61,1.41-.63.94-.95,2.36-.95,4.27h7.01c.03-1.66-.25-3.02-.83-4.08Z"/>
    <path class="cls-4" d="m502.18,89.57c-1.11,0-1.98.58-2.61,1.73s-.95,3.13-.95,5.93c.03,2.74.35,4.72.95,5.95.6,1.23,1.47,1.82,2.61,1.75,1.23,0,2.13-.64,2.7-1.91.57-1.28.88-3.27.95-5.98-.06-2.71-.41-4.64-1.06-5.79-.65-1.15-1.51-1.71-2.58-1.68Z"/>
    <path class="cls-4" d="m692.95,139.27c-1.11,0-1.98.47-2.61,1.41-.63.94-.95,2.36-.95,4.27h7.01c.03-1.66-.25-3.02-.83-4.08-.58-1.06-1.46-1.59-2.63-1.59Z"/>
    <path class="cls-4" d="m751.32,139.27c-1.11,0-1.98.47-2.61,1.41-.63.94-.95,2.36-.95,4.27h7.01c.03-1.66-.25-3.02-.83-4.08s-1.46-1.59-2.63-1.59Z"/>
    <path class="cls-2" d="m231.66,127.78h27.7c-4.26,12.12-15.71,20.77-29.16,20.77-17.04,0-30.89-13.85-30.89-30.89s13.85-30.76,30.89-30.76c11.98,0,22.37,6.92,27.56,16.91h11.19c-5.73-15.85-20.91-27.3-38.75-27.3-22.77,0-41.15,18.51-41.15,41.15s18.38,41.15,41.15,41.15,41.15-18.38,41.15-41.15v-.13h-39.68v10.25Z"/>
    <rect class="cls-2" x="279.33" y="76.38" width="10.39" height="82.43"/>
    <path class="cls-2" d="m338.99,76.52c-22.77,0-41.15,18.38-41.15,41.15h-.13v41.15h10.39v-41.15c0-17.04,13.85-30.89,30.89-30.89s30.76,13.85,30.76,30.89v41.15h10.39v-41.15c0-22.77-18.51-41.15-41.15-41.15Z"/>
    <path class="cls-6" d="m434.6,106.02c1.31-2.05,1.96-4.85,1.96-8.42v-4.01h-7.94v4.34h3.46c.09,2.37-.16,4.12-.76,5.24-.6,1.12-1.48,1.65-2.65,1.59-1.32.09-2.46-.53-3.42-1.87-.95-1.34-1.45-4.59-1.48-9.76.12-5.45.62-8.76,1.48-9.94.86-1.18,1.91-1.76,3.14-1.73,1.08,0,1.95.32,2.63.95.68.63,1.03,1.47,1.06,2.52h4.48c-.12-2.28-.94-4.15-2.45-5.61-1.51-1.46-3.37-2.19-5.58-2.19-2.55,0-4.71,1.18-6.48,3.53-1.77,2.35-2.68,6.51-2.75,12.48,0,5.75.8,9.85,2.4,12.3,1.6,2.45,3.98,3.67,7.15,3.67,2.52,0,4.44-1.02,5.75-3.07Z"/>
    <path class="cls-6" d="m450.45,90.81l1.11-4.15c-.92-.83-1.97-1.25-3.14-1.25-1.32,0-2.31.49-2.95,1.48v-1.34h-4.25v22.98h4.25v-15.18c0-2.46.94-3.69,2.81-3.69.95,0,1.68.39,2.17,1.15Z"/>
    <path class="cls-6" d="m462.27,108.95c2.4,0,4.4-1.2,6-3.6l-2.68-2.68c-.95,1.48-2.02,2.18-3.18,2.12-.98.06-1.87-.36-2.65-1.27-.78-.91-1.19-2.42-1.22-4.55h11.26c.12-3.97-.5-7.22-1.87-9.76-1.37-2.54-3.35-3.81-5.93-3.81s-4.6,1.13-5.86,3.39c-1.26,2.26-1.91,5.04-1.94,8.33.06,3.97.77,6.93,2.12,8.88,1.35,1.95,3.34,2.93,5.95,2.93Zm-2.88-18.11c.63-.94,1.5-1.41,2.61-1.41,1.17,0,2.05.53,2.63,1.59s.86,2.42.83,4.08h-7.01c0-1.91.32-3.33.95-4.27Z"/>
    <path class="cls-6" d="m489.96,108.53v-15.51c0-2.43-.69-4.32-2.08-5.68-1.38-1.35-3.11-2.03-5.17-2.03-1.54,0-2.91.54-4.11,1.62v-1.38h-4.25v22.98h4.34v-15.51c0-1.11.35-1.99,1.04-2.65.69-.66,1.51-.99,2.47-.99,1.01,0,1.84.34,2.47,1.02.63.68.95,1.55.95,2.63v15.51h4.34Z"/>
    <path class="cls-6" d="m508.04,105.74c1.29-2.14,1.94-5.01,1.94-8.61,0-3.91-.65-6.84-1.96-8.79-1.31-1.95-3.25-2.93-5.84-2.93s-4.37.98-5.72,2.95c-1.35,1.97-2.05,4.89-2.08,8.77.03,3.82.71,6.74,2.03,8.77,1.32,2.03,3.25,3.05,5.77,3.05s4.57-1.07,5.86-3.21Zm-3.16-2.72c-.57,1.28-1.47,1.91-2.7,1.91-1.14.06-2.01-.52-2.61-1.75-.6-1.23-.91-3.21-.95-5.95,0-2.8.31-4.78.95-5.93s1.5-1.73,2.61-1.73c1.08-.03,1.94.53,2.58,1.68.65,1.15,1,3.08,1.06,5.79-.06,2.71-.38,4.7-.95,5.98Z"/>
    <path class="cls-6" d="m530.19,97.13c0-7.81-2.46-11.72-7.38-11.72-1.54,0-2.88.51-4.01,1.52v-9.83l-4.43,2.21v29.21h4.43v-.74c.92.86,2.08,1.29,3.46,1.29,5.29-.09,7.94-4.08,7.94-11.95Zm-11.26,5.35v-10.66c.74-1.54,1.89-2.29,3.46-2.26,2.31,0,3.46,2.52,3.46,7.57-.06,5.23-1.26,7.83-3.6,7.8-1.6,0-2.71-.81-3.32-2.45Z"/>
    <polygon class="cls-6" points="535.04 108.53 539.47 108.53 539.47 77.11 535.04 79.32 535.04 108.53"/>
    <path class="cls-6" d="m552.48,108.95c2.4,0,4.4-1.2,6-3.6l-2.68-2.68c-.95,1.48-2.02,2.18-3.18,2.12-.98.06-1.87-.36-2.65-1.27-.78-.91-1.19-2.42-1.22-4.55h11.26c.12-3.97-.5-7.22-1.87-9.76-1.37-2.54-3.35-3.81-5.93-3.81s-4.6,1.13-5.86,3.39c-1.26,2.26-1.91,5.04-1.94,8.33.06,3.97.77,6.93,2.12,8.88,1.35,1.95,3.34,2.93,5.95,2.93Zm-2.88-18.11c.63-.94,1.5-1.41,2.61-1.41,1.17,0,2.05.53,2.63,1.59s.86,2.42.83,4.08h-7.01c0-1.91.32-3.33.95-4.27Z"/>
    <rect class="cls-5" x="420.87" y="127.45" width="4.34" height="30.92"/>
    <path class="cls-5" d="m439.33,135.16c-1.54,0-2.91.54-4.11,1.62v-1.38h-4.25v22.98h4.34v-15.51c0-1.11.35-1.99,1.04-2.65.69-.66,1.51-.99,2.47-.99,1.01,0,1.84.34,2.47,1.02.63.68.95,1.55.95,2.63v15.51h4.34v-15.51c0-2.43-.69-4.32-2.08-5.68-1.38-1.35-3.11-2.03-5.17-2.03Z"/>
    <path class="cls-5" d="m457.61,144.16c-1.23-.74-2.02-1.33-2.38-1.78-.35-.45-.55-.95-.58-1.5.03-.46.18-.85.46-1.15.28-.31.65-.46,1.11-.46,1.51.03,2.8.78,3.88,2.26l2.58-2.58c-1.72-2.4-3.86-3.63-6.41-3.69-1.6,0-2.96.58-4.08,1.73-1.12,1.15-1.67,2.5-1.64,4.04,0,1.48.37,2.7,1.11,3.67.74.97,1.83,1.87,3.28,2.7,1.35.8,2.4,1.62,3.14,2.45s1.09,1.63,1.06,2.4c.03.68-.21,1.26-.71,1.75-.51.49-1.1.72-1.78.69-1.35,0-2.66-.92-3.92-2.77l-2.86,2.86c1.72,2.65,3.97,3.98,6.74,4.02,1.85,0,3.38-.65,4.61-1.94,1.23-1.29,1.88-2.83,1.94-4.61,0-1.38-.35-2.7-1.06-3.95-.71-1.25-2.2-2.62-4.48-4.13Z"/>
    <path class="cls-5" d="m472.65,126.95l-4.34,2.17v6.69h-2.91v4.15h2.91v14.12c-.03,1.29.32,2.42,1.06,3.39s1.82,1.45,3.23,1.45c.89-.03,1.71-.26,2.45-.69l1.11-4.57c-.62.71-1.28,1.06-1.98,1.06-.92,0-1.43-.54-1.52-1.62v-13.15h3.6v-4.15h-3.6v-8.86Z"/>
    <path class="cls-5" d="m482.29,127.04c-.58,0-1.09.22-1.52.65-.43.43-.65.97-.65,1.62s.21,1.13.65,1.55c.43.42.94.62,1.52.62.65,0,1.18-.21,1.62-.62.43-.42.65-.93.65-1.55,0-.65-.21-1.18-.65-1.62-.43-.43-.97-.65-1.62-.65Z"/>
    <rect class="cls-5" x="480.13" y="135.39" width="4.43" height="22.98"/>
    <path class="cls-5" d="m495.72,126.95l-4.34,2.17v6.69h-2.91v4.15h2.91v14.12c-.03,1.29.32,2.42,1.06,3.39.74.97,1.82,1.45,3.23,1.45.89-.03,1.71-.26,2.45-.69l1.11-4.57c-.62.71-1.28,1.06-1.98,1.06-.92,0-1.43-.54-1.52-1.62v-13.15h3.6v-4.15h-3.6v-8.86Z"/>
    <path class="cls-5" d="m513.95,150.9c0,1.11-.35,1.99-1.04,2.65-.69.66-1.52.99-2.47.99-1.02,0-1.84-.34-2.47-1.02-.63-.68-.95-1.55-.95-2.63v-15.51h-4.34v15.51c0,2.43.69,4.32,2.08,5.68,1.38,1.35,3.11,2.03,5.17,2.03,1.54,0,2.91-.54,4.11-1.62v1.38h4.25v-22.98h-4.34v15.51Z"/>
    <path class="cls-5" d="m528.95,126.95l-4.34,2.17v6.69h-2.91v4.15h2.91v14.12c-.03,1.29.32,2.42,1.06,3.39.74.97,1.82,1.45,3.23,1.45.89-.03,1.71-.26,2.45-.69l1.11-4.57c-.62.71-1.28,1.06-1.98,1.06-.92,0-1.43-.54-1.52-1.62v-13.15h3.6v-4.15h-3.6v-8.86Z"/>
    <polygon class="cls-5" points="558.99 146.83 550.54 127.45 546.11 127.45 546.11 158.37 550.54 158.37 550.54 138.71 559.17 158.37 563.46 158.37 563.46 127.45 558.99 127.45 558.99 146.83"/>
    <path class="cls-5" d="m575.51,135.25c-2.65,0-4.6,1.13-5.86,3.39-1.26,2.26-1.91,5.04-1.94,8.33.06,3.97.77,6.93,2.12,8.88,1.35,1.95,3.34,2.93,5.95,2.93,2.4,0,4.4-1.2,6-3.6l-2.68-2.68c-.95,1.48-2.02,2.19-3.18,2.12-.98.06-1.87-.36-2.65-1.27-.78-.91-1.19-2.42-1.22-4.55h11.26c.12-3.97-.5-7.22-1.87-9.76-1.37-2.54-3.35-3.81-5.93-3.81Zm-3.55,9.69c0-1.91.32-3.33.95-4.27.63-.94,1.5-1.41,2.61-1.41,1.17,0,2.05.53,2.63,1.59s.86,2.42.83,4.08h-7.01Z"/>
    <path class="cls-5" d="m599.09,150.9c0,1.11-.35,1.99-1.04,2.65-.69.66-1.52.99-2.47.99-1.02,0-1.84-.34-2.47-1.02-.63-.68-.95-1.55-.95-2.63v-15.51h-4.34v15.51c0,2.43.69,4.32,2.08,5.68,1.38,1.35,3.11,2.03,5.17,2.03,1.54,0,2.91-.54,4.11-1.62v1.38h4.25v-22.98h-4.34v15.51Z"/>
    <path class="cls-5" d="m612.75,136.73v-1.34h-4.25v22.98h4.25v-15.18c0-2.46.94-3.69,2.81-3.69.95,0,1.68.39,2.17,1.15l1.11-4.15c-.92-.83-1.97-1.25-3.14-1.25-1.32,0-2.31.49-2.95,1.48Z"/>
    <path class="cls-5" d="m629.31,135.25c-2.46,0-4.37.98-5.72,2.95-1.35,1.97-2.05,4.89-2.08,8.77.03,3.82.71,6.74,2.03,8.77,1.32,2.03,3.25,3.05,5.77,3.05s4.57-1.07,5.86-3.21c1.29-2.14,1.94-5.01,1.94-8.61,0-3.91-.65-6.84-1.96-8.79-1.31-1.95-3.25-2.93-5.84-2.93Zm2.7,17.6c-.57,1.28-1.47,1.92-2.7,1.92-1.14.06-2.01-.52-2.61-1.75-.6-1.23-.92-3.21-.95-5.95,0-2.8.31-4.78.95-5.93.63-1.15,1.5-1.73,2.61-1.73,1.08-.03,1.94.53,2.58,1.68.65,1.15,1,3.08,1.06,5.79-.06,2.71-.38,4.7-.95,5.98Z"/>
    <path class="cls-5" d="m648.19,144.16c-1.23-.74-2.02-1.33-2.38-1.78-.35-.45-.55-.95-.58-1.5.03-.46.18-.85.46-1.15.28-.31.65-.46,1.11-.46,1.51.03,2.8.78,3.88,2.26l2.58-2.58c-1.72-2.4-3.86-3.63-6.41-3.69-1.6,0-2.96.58-4.08,1.73-1.12,1.15-1.67,2.5-1.64,4.04,0,1.48.37,2.7,1.11,3.67.74.97,1.83,1.87,3.28,2.7,1.35.8,2.4,1.62,3.14,2.45.74.83,1.09,1.63,1.06,2.4.03.68-.21,1.26-.71,1.75-.51.49-1.1.72-1.78.69-1.35,0-2.66-.92-3.92-2.77l-2.86,2.86c1.72,2.65,3.97,3.98,6.74,4.02,1.85,0,3.38-.65,4.61-1.94,1.23-1.29,1.88-2.83,1.94-4.61,0-1.38-.35-2.7-1.06-3.95s-2.2-2.62-4.48-4.13Z"/>
    <path class="cls-5" d="m664.94,154.59c-.95.06-1.84-.41-2.65-1.41-.82-1-1.24-3.04-1.27-6.11,0-2.46.35-4.33,1.04-5.61.69-1.28,1.62-1.9,2.79-1.87,1.38.06,2.52.78,3.42,2.17l2.72-2.72c-1.35-2.49-3.46-3.75-6.32-3.78-2.62,0-4.57,1.16-5.86,3.48-1.29,2.32-1.94,5.07-1.94,8.24.06,3.97.77,6.93,2.12,8.88,1.35,1.95,3.34,2.93,5.95,2.93,2.4,0,4.45-1.15,6.14-3.46l-2.81-2.81c-1.05,1.42-2.15,2.11-3.32,2.08Z"/>
    <path class="cls-5" d="m677.95,127.04c-.58,0-1.09.22-1.52.65-.43.43-.65.97-.65,1.62s.21,1.13.65,1.55c.43.42.94.62,1.52.62.65,0,1.18-.21,1.62-.62.43-.42.65-.93.65-1.55,0-.65-.21-1.18-.65-1.62-.43-.43-.97-.65-1.62-.65Z"/>
    <rect class="cls-5" x="675.78" y="135.39" width="4.43" height="22.98"/>
    <path class="cls-5" d="m692.95,135.25c-2.65,0-4.6,1.13-5.86,3.39-1.26,2.26-1.91,5.04-1.94,8.33.06,3.97.77,6.93,2.12,8.88,1.35,1.95,3.34,2.93,5.95,2.93,2.4,0,4.4-1.2,6-3.6l-2.68-2.68c-.95,1.48-2.02,2.19-3.18,2.12-.98.06-1.87-.36-2.65-1.27-.78-.91-1.19-2.42-1.22-4.55h11.26c.12-3.97-.5-7.22-1.87-9.76-1.37-2.54-3.35-3.81-5.93-3.81Zm-3.55,9.69c0-1.91.32-3.33.95-4.27.63-.94,1.5-1.41,2.61-1.41,1.17,0,2.05.53,2.63,1.59.58,1.06.86,2.42.83,4.08h-7.01Z"/>
    <path class="cls-5" d="m713.67,135.16c-1.54,0-2.91.54-4.11,1.62v-1.38h-4.25v22.98h4.34v-15.51c0-1.11.35-1.99,1.04-2.65.69-.66,1.51-.99,2.47-.99,1.01,0,1.84.34,2.47,1.02.63.68.95,1.55.95,2.63v15.51h4.34v-15.51c0-2.43-.69-4.32-2.08-5.68-1.38-1.35-3.11-2.03-5.17-2.03Z"/>
    <path class="cls-5" d="m733.23,154.59c-.95.06-1.84-.41-2.65-1.41-.82-1-1.24-3.04-1.27-6.11,0-2.46.35-4.33,1.04-5.61.69-1.28,1.62-1.9,2.79-1.87,1.38.06,2.52.78,3.42,2.17l2.72-2.72c-1.35-2.49-3.46-3.75-6.32-3.78-2.62,0-4.57,1.16-5.86,3.48-1.29,2.32-1.94,5.07-1.94,8.24.06,3.97.77,6.93,2.12,8.88,1.35,1.95,3.34,2.93,5.95,2.93,2.4,0,4.45-1.15,6.14-3.46l-2.81-2.81c-1.05,1.42-2.15,2.11-3.32,2.08Z"/>
    <path class="cls-5" d="m751.32,135.25c-2.65,0-4.6,1.13-5.86,3.39-1.26,2.26-1.91,5.04-1.94,8.33.06,3.97.77,6.93,2.12,8.88,1.35,1.95,3.34,2.93,5.95,2.93,2.4,0,4.4-1.2,6-3.6l-2.68-2.68c-.95,1.48-2.02,2.19-3.18,2.12-.98.06-1.87-.36-2.65-1.27-.78-.91-1.19-2.42-1.22-4.55h11.26c.12-3.97-.5-7.22-1.87-9.76-1.37-2.54-3.35-3.81-5.93-3.81Zm-3.55,9.69c0-1.91.32-3.33.95-4.27.63-.94,1.5-1.41,2.61-1.41,1.17,0,2.05.53,2.63,1.59s.86,2.42.83,4.08h-7.01Z"/>
    <path class="cls-5" d="m774.72,148.29c-.71-1.25-2.2-2.62-4.48-4.13-1.23-.74-2.02-1.33-2.38-1.78-.35-.45-.55-.95-.58-1.5.03-.46.18-.85.46-1.15.28-.31.65-.46,1.11-.46,1.51.03,2.8.78,3.88,2.26l2.58-2.58c-1.72-2.4-3.86-3.63-6.42-3.69-1.6,0-2.96.58-4.08,1.73-1.12,1.15-1.67,2.5-1.64,4.04,0,1.48.37,2.7,1.11,3.67.74.97,1.83,1.87,3.28,2.7,1.35.8,2.4,1.62,3.14,2.45.74.83,1.09,1.63,1.06,2.4.03.68-.21,1.26-.71,1.75-.51.49-1.1.72-1.78.69-1.35,0-2.66-.92-3.92-2.77l-2.86,2.86c1.72,2.65,3.97,3.98,6.74,4.02,1.85,0,3.38-.65,4.61-1.94,1.23-1.29,1.88-2.83,1.94-4.61,0-1.38-.35-2.7-1.06-3.95Z"/>
    <rect class="cls-3" x="279.33" y="55.92" width="10.35" height="10.35"/>
  </g>
</svg>